<?xml version="1.0" encoding="UTF-8" standalone="no"?>
<!-- Created with Inkscape (http://www.inkscape.org/) -->

<svg
   width="210mm"
   height="297mm"
   viewBox="0 0 210 297"
   version="1.1"
   id="svg5"
   xml:space="preserve"
   sodipodi:docname="Logo-inline.svg"
   inkscape:version="1.2.2 (732a01da63, 2022-12-09)"
   xmlns:inkscape="http://www.inkscape.org/namespaces/inkscape"
   xmlns:sodipodi="http://sodipodi.sourceforge.net/DTD/sodipodi-0.dtd"
   xmlns="http://www.w3.org/2000/svg"
   xmlns:svg="http://www.w3.org/2000/svg"><sodipodi:namedview
     id="namedview7"
     pagecolor="#ffffff"
     bordercolor="#000000"
     borderopacity="0.25"
     inkscape:showpageshadow="2"
     inkscape:pageopacity="0.0"
     inkscape:pagecheckerboard="0"
     inkscape:deskcolor="#d1d1d1"
     inkscape:document-units="mm"
     showgrid="false"
     inkscape:zoom="1"
     inkscape:cx="362"
     inkscape:cy="674"
     inkscape:window-width="1920"
     inkscape:window-height="1017"
     inkscape:window-x="-8"
     inkscape:window-y="-8"
     inkscape:window-maximized="1"
     inkscape:current-layer="g179"
     showguides="true"><sodipodi:guide
       position="109.70412,132.71276"
       orientation="1,0"
       id="guide14040"
       inkscape:locked="false" /></sodipodi:namedview><defs
     id="defs2" /><g
     inkscape:label="Warstwa 1"
     inkscape:groupmode="layer"
     id="layer1"><g
       id="g179"><g
         id="g13979"><path
           style="fill:#1b4c4b;fill-opacity:1;stroke-width:0.264583"
           d="m 175.70074,174.62578 c 0,-8.68715 0.0105,-8.86354 0.52917,-8.86354 0.50501,0 0.52916,0.17639 0.52916,3.86444 0,3.86444 0,3.86444 0.77157,3.03848 1.02333,-1.09548 2.33497,-1.61125 4.0975,-1.61125 2.37325,0 3.79456,0.81651 4.54674,2.612 0.53851,1.28544 0.54162,9.82341 0.004,9.82341 -0.29878,0 -0.3881,-0.85498 -0.46302,-4.43177 -0.10484,-5.00522 -0.37121,-5.86852 -2.0862,-6.76118 -1.23937,-0.64509 -3.92113,-0.51383 -4.93274,0.24145 -1.70493,1.27292 -1.79764,1.59058 -1.8887,6.47201 -0.0788,4.22347 -0.11282,4.47949 -0.59532,4.47949 -0.49575,0 -0.51174,-0.27697 -0.51174,-8.86354 z"
           id="path7234" /><path
           style="fill:#1b4c4b;fill-opacity:1;stroke-width:0.264583"
           d="m 165.9674,183.10512 c -1.41456,-0.63805 -1.64374,-1.57933 -1.64374,-6.75105 0,-4.50641 0,-4.50641 -1.19063,-4.50641 -0.88194,0 -1.19062,-0.1029 -1.19062,-0.39688 0,-0.29398 0.30868,-0.39687 1.19062,-0.39687 1.19063,0 1.19063,0 1.19063,-1.45521 0,-1.27882 0.0641,-1.45521 0.52916,-1.45521 0.46503,0 0.52917,0.17639 0.52917,1.45521 0,1.45521 0,1.45521 1.98437,1.45521 1.5875,0 1.98438,0.0794 1.98438,0.39687 0,0.3175 -0.39688,0.39688 -1.98438,0.39688 -1.98437,0 -1.98437,0 -1.98437,4.70363 0,5.27792 0.12932,5.73107 1.72075,6.02963 0.50149,0.0941 1.29128,0.0388 1.75509,-0.12292 0.99712,-0.3476 1.28813,-0.17967 0.70287,0.40559 -0.58694,0.58694 -2.53692,0.71801 -3.5933,0.24153 z"
           id="path7232" /><path
           style="fill:#1b4c4b;fill-opacity:1;stroke-width:0.264583"
           d="m 149.3747,183.09167 c -1.99272,-0.705 -2.86555,-2.35958 -2.22385,-4.21562 0.29404,-0.85047 0.61858,-1.19973 1.55231,-1.67058 1.01628,-0.51248 1.5961,-0.59531 4.16718,-0.59531 2.98665,0 2.98665,0 2.98665,-1.06683 0,-1.50128 -0.61228,-2.79449 -1.55352,-3.28123 -1.22666,-0.63433 -3.60916,-0.53093 -5.23768,0.22732 -1.27045,0.59152 -1.67547,0.62332 -1.67547,0.13156 0,-0.10825 0.61869,-0.50513 1.37487,-0.88195 1.81535,-0.90463 4.53936,-0.9639 6.02127,-0.13102 1.81296,1.01894 1.98535,1.60241 2.08373,7.05267 0.0856,4.74167 0.0772,4.82864 -0.46302,4.82864 -0.47382,0 -0.55018,-0.16156 -0.55018,-1.16416 0,-1.16417 0,-1.16417 -0.87231,-0.29186 -1.38366,1.38366 -3.54043,1.79055 -5.60998,1.05837 z m 4.29401,-0.91569 c 1.43534,-0.65157 2.18599,-1.85797 2.18729,-3.5153 9.9e-4,-1.25677 9.9e-4,-1.25677 -3.19436,-1.25677 -3.17893,0 -3.19933,0.004 -3.96875,0.77339 -1.00749,1.00749 -1.04639,2.30116 -0.10291,3.42242 0.36877,0.43826 0.93432,0.8479 1.25677,0.91031 1.36576,0.26435 2.77509,0.14118 3.82196,-0.33405 z"
           id="path7230" /><path
           style="fill:#c64a16;fill-opacity:1;stroke-width:0.264583"
           d="m 118.55074,177.27162 c 0,-6.04132 0.015,-6.21771 0.52917,-6.21771 0.46175,0 0.52939,0.17697 0.53091,1.38906 0.002,1.38906 0.002,1.38906 0.51487,0.61064 0.6792,-1.03035 2.31651,-1.99666 3.38599,-1.99835 1.28805,-0.002 1.10732,0.6852 -0.23673,0.90012 -1.46409,0.23412 -2.56295,1.06117 -3.16173,2.37964 -0.41033,0.90353 -0.49349,1.75784 -0.49834,5.11941 -0.006,3.85657 -0.0292,4.03489 -0.53497,4.03489 -0.51416,0 -0.52917,-0.17639 -0.52917,-6.2177 z"
           id="path7228" /><path
           style="fill:#c64a16;fill-opacity:1;stroke-width:0.264583"
           d="m 105.14688,183.10967 c -1.57694,-0.49318 -2.62768,-1.32668 -3.46231,-2.74649 -0.62016,-1.05498 -0.72862,-1.53486 -0.72862,-3.22386 0,-1.69778 0.10719,-2.16673 0.74223,-3.24707 1.04932,-1.78512 2.47428,-2.65834 4.55411,-2.79078 0.91452,-0.0582 2.07141,0.029 2.57084,0.19381 1.66566,0.54972 3.64219,3.0574 3.64219,4.62095 0,0.73818 0.12447,0.70107 -6.49125,1.93556 -4.0886,0.76293 -4.15178,0.80339 -3.4309,2.19741 0.83485,1.61442 3.3477,2.77079 5.35139,2.46262 1.57947,-0.24292 1.91111,-0.36794 2.67007,-1.00657 0.60638,-0.51024 0.81822,-0.57713 0.92732,-0.29282 0.21208,0.55268 -0.91855,1.4673 -2.34429,1.89638 -1.52325,0.45843 -2.53702,0.45865 -4.00078,8.7e-4 z m 1.59754,-6.09251 c 2.60157,-0.50355 4.78144,-0.96684 4.84414,-1.02955 0.19919,-0.19918 -0.71319,-2.12358 -1.31868,-2.78138 -1.59798,-1.73603 -5.00892,-1.84526 -6.75999,-0.21647 -0.96375,0.89644 -1.6279,2.42317 -1.6279,3.74215 0,0.66064 0.0298,1.20108 0.0661,1.20098 0.0364,-1.1e-4 2.1947,-0.41218 4.79628,-0.91573 z"
           id="path7226" /><path
           style="fill:#c64a16;fill-opacity:1;stroke-width:0.264583"
           d="m 86.770333,183.14009 c -3.264786,-1.22061 -4.843849,-4.45439 -3.847933,-7.88023 0.755499,-2.59882 2.945148,-4.20595 5.730425,-4.20595 1.943039,0 3.304355,0.62003 4.472324,2.03698 0.819343,0.994 0.819343,0.994 0.819343,-3.16732 0,-3.98494 0.02243,-4.16133 0.529166,-4.16133 0.518637,0 0.529167,0.17639 0.529167,8.86354 0,8.68715 -0.01053,8.86354 -0.529167,8.86354 -0.4675,0 -0.529166,-0.17639 -0.529166,-1.51364 0,-1.51364 0,-1.51364 -0.973408,-0.51146 -0.535373,0.55119 -1.322678,1.18278 -1.749562,1.40353 -1.092126,0.56476 -3.306644,0.70025 -4.451189,0.27234 z m 4.477115,-1.17654 c 1.497248,-0.68592 2.694094,-2.82907 2.694094,-4.82423 0,-1.97795 -1.413217,-4.23223 -3.093273,-4.9342 -2.151174,-0.89882 -5.118455,-0.0684 -6.337435,1.77363 -0.894694,1.35197 -1.129049,3.76836 -0.520113,5.36283 1.073407,2.81068 4.300022,3.97651 7.256727,2.62197 z"
           id="path7224" /><path
           style="fill:#c64a16;fill-opacity:1;stroke-width:0.264583"
           d="m 69.20595,183.09167 c -2.065629,-0.73079 -2.966757,-2.66834 -2.095212,-4.50498 0.724279,-1.52631 1.967183,-1.96363 5.600941,-1.97072 2.976563,-0.006 2.976563,-0.006 2.976563,-1.07264 0,-1.50128 -0.612281,-2.79449 -1.553517,-3.28123 -1.226664,-0.63433 -3.60916,-0.53093 -5.237687,0.22732 -1.250391,0.58219 -1.675463,0.62192 -1.675463,0.15661 0,-0.0945 0.496866,-0.45102 1.104146,-0.79233 0.781637,-0.4393 1.673431,-0.6571 3.05317,-0.74564 2.403311,-0.15424 3.770048,0.36779 4.644594,1.774 0.544824,0.87605 0.59758,1.32572 0.677957,5.77862 0.08559,4.74167 0.07725,4.82864 -0.46302,4.82864 -0.473824,0 -0.55018,-0.16156 -0.55018,-1.16416 0,-1.16417 0,-1.16417 -0.87231,-0.29186 -1.383663,1.38366 -3.54043,1.79055 -5.609982,1.05837 z m 4.259509,-0.90024 c 1.534078,-0.6967 2.222783,-1.76901 2.222783,-3.46088 0,-1.3698 0,-1.3698 -3.330824,-1.28208 -3.274462,0.0862 -3.341619,0.10029 -3.96875,0.83009 -0.85449,0.99437 -0.841867,2.28196 0.03256,3.32116 0.368771,0.43826 0.934318,0.8479 1.256771,0.91031 1.354505,0.26218 2.770997,0.14302 3.787458,-0.3186 z"
           id="path7222" /><path
           style="fill:#c64a16;fill-opacity:1;stroke-width:0.264583"
           d="m 54.84484,183.10046 c -3.697568,-1.15462 -5.370611,-5.32671 -3.564411,-8.88862 1.046553,-2.06385 2.457562,-2.97902 4.796848,-3.1112 2.018351,-0.11405 3.301865,0.36637 4.581824,1.71497 0.77456,0.8161 1.535391,2.41577 1.535391,3.2282 0,0.59267 0.232809,0.52564 -5.688542,1.63786 -2.473854,0.46467 -4.585784,0.92421 -4.693177,1.0212 -0.314621,0.28415 0.703401,1.93297 1.682981,2.72581 1.646708,1.33279 4.972841,1.42986 6.653884,0.19417 0.974913,-0.71662 1.477987,-0.39351 0.691224,0.44396 -0.656831,0.69916 -2.772751,1.43271 -4.052205,1.40481 -0.446532,-0.01 -1.321247,-0.17675 -1.943817,-0.37116 z m 1.641647,-6.0983 c 2.60867,-0.50949 4.770903,-0.95494 4.804961,-0.9899 0.205025,-0.21044 -0.75932,-2.22941 -1.368634,-2.8654 -0.947299,-0.98877 -2.216963,-1.38744 -3.958625,-1.24301 -2.603559,0.21591 -4.353031,2.14093 -4.353031,4.78984 0,0.68166 0.02977,1.23836 0.06615,1.2371 0.03638,-0.001 2.200513,-0.41914 4.809183,-0.92863 z"
           id="path7220" /><path
           style="fill:#c64a16;fill-opacity:1;stroke-width:0.264583"
           d="m 32.825742,180.18203 c 0,-3.30729 0,-3.30729 4.044979,-3.30729 3.673204,0 4.152059,-0.0547 5.210031,-0.59531 1.570678,-0.80258 2.183199,-1.71734 2.329256,-3.4786 0.165656,-1.9976 -0.634833,-3.6571 -2.153298,-4.46403 -0.968251,-0.51453 -1.584312,-0.59363 -5.263781,-0.67585 -3.368589,-0.0753 -4.167187,-0.16472 -4.167187,-0.46675 0,-0.30406 0.692488,-0.37363 3.719295,-0.37363 4.486046,0 5.700538,0.26928 7.210987,1.59883 1.757153,1.54671 2.267801,4.03807 1.272108,6.20638 -0.563345,1.22679 -1.149266,1.80183 -2.510676,2.46403 -0.977754,0.47558 -0.977754,0.47558 1.156604,3.45714 1.794471,2.50675 2.039743,2.9679 1.540207,2.89582 -0.411595,-0.0594 -1.206997,-0.96031 -2.588734,-2.93216 -1.868973,-2.66716 -2.042487,-2.83795 -2.75526,-2.71198 -0.418372,0.074 -1.936419,0.13444 -3.373438,0.13444 -2.61276,0 -2.61276,0 -2.61276,2.77813 0,2.60173 -0.0336,2.77812 -0.529167,2.77812 -0.500944,0 -0.529166,-0.17639 -0.529166,-3.30729 z"
           id="path7218" /><path
           style="fill:#1b4c4b;fill-opacity:1;stroke-width:0.264583"
           d="m 129.92782,179.52057 c 0,-7.34953 0.0524,-8.46666 0.39688,-8.46666 0.30658,0 0.39687,0.34477 0.39687,1.51549 0,1.51549 0,1.51549 0.84118,0.49499 1.10444,-1.33987 2.59577,-1.99737 4.54698,-2.00467 3.77621,-0.0141 6.49974,3.30809 5.88149,7.1744 -0.78651,4.91858 -6.48391,6.93557 -9.91085,3.50863 -0.64011,-0.64011 -1.20771,-1.16384 -1.26132,-1.16384 -0.0536,0 -0.0975,1.66687 -0.0975,3.70416 0,3.11621 -0.063,3.70417 -0.39687,3.70417 -0.34451,0 -0.39688,-1.11713 -0.39688,-8.46667 z m 8.46667,2.50136 c 2.31286,-1.16931 3.35693,-4.76395 2.14822,-7.39615 -0.82574,-1.79822 -2.46098,-2.77812 -4.63604,-2.77812 -2.0389,0 -3.63369,0.96432 -4.59445,2.77812 -0.69106,1.30466 -0.58961,3.99659 0.20391,5.41043 1.27444,2.27071 4.48268,3.1969 6.87836,1.98572 z"
           id="path7172" /></g><g
         id="g13984"
         transform="matrix(0.63741633,0,0,0.63741633,-52.038489,83.053343)"><path
           style="fill:#1b4c4b;fill-opacity:1;stroke-width:0.264583"
           d="m 109.4304,135.67907 c -0.12023,-0.18595 -0.29467,4.63621 -0.36743,10.63506 -0.16109,13.28145 0.28884,12.08368 -4.57066,12.16761 -1.779,0.0307 -3.41314,-0.0142 -3.63142,-0.0998 v -2e-5 c -0.21828,-0.0856 -0.66476,-0.39941 -0.992194,-0.6973 -0.59531,-0.54161 -0.59531,-0.54161 -0.59531,-12.77697 0,-6.72945 0.074,-12.4281 0.16436,-12.66367 0.34221,-0.89179 1.548434,-1.20262 4.651154,-1.19858 3.2911,0.004 4.79555,0.35646 5.34405,1.5004 m -2.22206,16.75195 c 0,-7.40833 0,-7.40833 -3.175,-7.40833 -3.175,0 -3.175,0 -3.175,7.23194 0,3.97757 0.0794,7.31132 0.17639,7.40834 0.097,0.097 1.52576,0.17639 3.175,0.17639 2.99861,0 2.99861,0 2.99861,-7.40834 z m 0,-9.66569 c 0,-1.19902 0,-1.19902 -3.10885,-1.12447 -3.10886,0.0745 -3.10886,0.0745 -3.19473,0.82449 -0.16583,1.44815 -0.0555,1.49901 3.25257,1.49901 3.05101,0 3.05101,0 3.05101,-1.19903 z m 0,-4.48952 c 0,-2.24895 0,-2.24895 -3.175,-2.24895 -3.175,0 -3.175,0 -3.175,2.24895 0,2.24896 0,2.24896 3.175,2.24896 3.175,0 3.175,0 3.175,-2.24896 z"
           id="path13209"
           sodipodi:nodetypes="csssssscccssssssscssssssss" /><path
           style="fill:#c64a16;fill-opacity:1;stroke-width:0.264583"
           d="m 109.45372,132.52268 c 0.14912,-0.38859 6.09049,-2.2749 6.96635,-2.2749 1.17842,0 1.83875,1.08312 3.71003,6.08542 1.00708,2.69214 1.98092,5.37104 2.16407,5.95312 0.18316,0.58209 1.2174,3.43255 2.29832,6.33437 2.03472,5.46239 2.13028,6.03635 1.16561,7.00102 -0.51873,0.51872 -5.85654,2.40732 -6.80391,2.40732 -1.09262,0 -1.8821,-0.97371 -2.6302,-3.24401 -0.39508,-1.19897 -1.42758,-4.08495 -2.29445,-6.41328 -0.86686,-2.32833 -2.21077,-6.04573 -2.98645,-8.26088 -0.77568,-2.21515 -1.5087,-4.17968 -1.62893,-4.36562 m 12.64206,19.6744 c 1.2021,-0.40392 2.30317,-0.92074 2.44683,-1.14849 0.19277,-0.3056 -0.22899,-1.72193 -1.60972,-5.40572 -1.02901,-2.7454 -2.08756,-5.68999 -2.35234,-6.54353 -0.26477,-0.85354 -0.63579,-1.61113 -0.82448,-1.68354 -0.36854,-0.14143 -5.57022,1.73977 -5.78887,2.09355 -0.0723,0.11693 0.76816,2.62566 1.8676,5.57497 1.09944,2.94931 1.99898,5.44048 1.99898,5.53594 0,0.0955 0.23743,0.72746 0.52762,1.40444 0.42884,1.00043 0.62321,1.20055 1.03819,1.06884 0.28081,-0.0891 1.4941,-0.49253 2.69619,-0.89646 z m -5.69115,-15.01777 c 1.44088,-0.52711 2.71478,-1.04477 2.83088,-1.15037 0.16594,-0.15091 -0.1505,-1.27524 -0.51259,-1.82128 -0.0341,-0.0515 -1.37924,0.34533 -2.98913,0.88177 -1.80243,0.6006 -2.92709,1.11281 -2.92709,1.33312 0,0.57673 0.49589,1.71514 0.74711,1.71514 0.12707,0 1.40994,-0.43127 2.85082,-0.95838 z m -0.75366,-3.34761 c 1.34607,-0.45336 2.4474,-0.96906 2.4474,-1.14602 0,-0.49532 -1.10679,-3.37003 -1.44044,-3.74131 -0.23394,-0.26033 -0.72994,-0.16282 -2.35523,0.46302 -1.13238,0.43604 -2.19006,0.71424 -2.37906,0.77526 -0.18108,0.0585 -0.58295,0.19844 -0.80405,0.41953 -0.3596,0.3596 -0.33174,0.58864 0.2642,2.17188 0.84034,2.23258 0.85852,2.25958 1.38353,2.05332 0.23994,-0.0943 1.53758,-0.54232 2.88365,-0.99568 z"
           id="path10185" /><path
           style="fill:#1b4c4b;fill-opacity:1;stroke-width:0.264583"
           d="m 90.013266,158.38195 c -0.21828,-0.0856 -0.66476,-0.39941 -0.99218,-0.6973 -0.59532,-0.54161 -0.59532,-0.54161 -0.59532,-12.77697 0,-6.72945 0.074,-12.4281 0.16436,-12.66367 0.34712,-0.9046 1.54345,-1.20248 4.82929,-1.20248 3.02202,0 3.20531,0.0315 3.98189,0.68498 0.81405,0.68498 0.81405,0.68498 0.81405,12.94983 0,15.00809 0.42348,13.72049 -4.54053,13.80543 -1.79558,0.0307 -3.44327,-0.0142 -3.66156,-0.0998 z m 6.4823,-9.08417 c 0,-7.27604 0,-7.27604 -3.175,-7.27604 -3.175,0 -3.175,0 -3.24566,7.00732 -0.0389,3.85402 -0.0114,7.1618 0.0611,7.35063 0.1,0.26048 0.88297,0.32531 3.24566,0.26872 3.11392,-0.0746 3.11392,-0.0746 3.11392,-7.35063 z m 0,-9.65729 c 0,-1.05833 0,-1.05833 -3.175,-1.05833 -3.175,0 -3.175,0 -3.26088,0.74995 -0.16945,1.47981 -0.0709,1.52257 3.32196,1.4413 3.11392,-0.0746 3.11392,-0.0746 3.11392,-1.13292 z m 0,-4.49792 c 0,-2.11666 0,-2.11666 -3.175,-2.11666 -3.175,0 -3.175,0 -3.25415,1.82583 -0.0435,1.00421 -0.016,1.99027 0.0611,2.19125 0.11061,0.28825 0.79784,0.34967 3.25415,0.29084 3.11392,-0.0746 3.11392,-0.0746 3.11392,-2.19126 z"
           id="path8712" /></g></g></g></svg>
